<svg preserveAspectRatio="none" width="100%" height="100%" overflow="visible" style="display: block;" viewBox="0 0 14 15" fill="none" xmlns="http://www.w3.org/2000/svg">
<path id="Vector" d="M1 6.33299C0.999954 6.13903 1.04222 5.9474 1.12386 5.77146C1.20549 5.59553 1.32453 5.43952 1.47267 5.31432L6.13933 1.31499C6.37999 1.11159 6.6849 1 7 1C7.3151 1 7.62001 1.11159 7.86067 1.31499L12.5273 5.31432C12.6755 5.43952 12.7945 5.59553 12.8761 5.77146C12.9578 5.9474 13 6.13903 13 6.33299V12.333C13 12.6866 12.8595 13.0257 12.6095 13.2758C12.3594 13.5258 12.0203 13.6663 11.6667 13.6663H2.33333C1.97971 13.6663 1.64057 13.5258 1.39052 13.2758C1.14048 13.0257 1 12.6866 1 12.333V6.33299Z" stroke="var(--stroke-0, #4B5563)" stroke-width="1.33333" stroke-linecap="round" stroke-linejoin="round"/>
</svg>
