<svg preserveAspectRatio="none" width="100%" height="100%" overflow="visible" style="display: block;" viewBox="0 0 645 688" fill="none" xmlns="http://www.w3.org/2000/svg">
<g id="Subtract">
<mask id="path-1-inside-1_2064_25973" fill="white">
<path d="M547.677 362.607C547.677 373.653 556.631 382.607 567.677 382.607H625C636.046 382.607 645 391.562 645 402.607V668C645 679.046 636.046 688 625 688H20C8.95431 688 0 679.046 0 668V20C0 8.95431 8.95431 0 20 0H527.677C538.722 0 547.677 8.95431 547.677 20V362.607Z"/>
</mask>
<path d="M547.677 362.607C547.677 373.653 556.631 382.607 567.677 382.607H625C636.046 382.607 645 391.562 645 402.607V668C645 679.046 636.046 688 625 688H20C8.95431 688 0 679.046 0 668V20C0 8.95431 8.95431 0 20 0H527.677C538.722 0 547.677 8.95431 547.677 20V362.607Z" fill="var(--fill-0, #D9D9D9)"/>
<path d="M567.677 382.607V383.607H625V382.607V381.607H567.677V382.607ZM645 402.607H644V668H645H646V402.607H645ZM625 688V687H20V688V689H625V688ZM0 668H1V20H0H-1V668H0ZM20 0V1H527.677V0V-1H20V0ZM547.677 20H546.677V362.607H547.677H548.677V20H547.677ZM527.677 0V1C538.17 1 546.677 9.50659 546.677 20H547.677H548.677C548.677 8.40202 539.275 -1 527.677 -1V0ZM0 20H1C1 9.5066 9.50659 1 20 1V0V-1C8.40202 -1 -1 8.40203 -1 20H0ZM20 688V687C9.5066 687 1 678.493 1 668H0H-1C-1 679.598 8.40203 689 20 689V688ZM645 668H644C644 678.493 635.493 687 625 687V688V689C636.598 689 646 679.598 646 668H645ZM625 382.607V383.607C635.493 383.607 644 392.114 644 402.607H645H646C646 391.009 636.598 381.607 625 381.607V382.607ZM567.677 382.607V381.607C557.183 381.607 548.677 373.101 548.677 362.607H547.677H546.677C546.677 374.205 556.079 383.607 567.677 383.607V382.607Z" fill="var(--stroke-0, black)" mask="url(#path-1-inside-1_2064_25973)"/>
</g>
</svg>
