<svg preserveAspectRatio="none" width="100%" height="100%" overflow="visible" style="display: block;" viewBox="0 0 16 16" fill="none" xmlns="http://www.w3.org/2000/svg">
<g id="material-symbols:work">
<path id="Vector" d="M2.66536 14.0002C2.2987 14.0002 1.98492 13.8697 1.72403 13.6088C1.46314 13.3479 1.33248 13.0339 1.33203 12.6668V5.3335C1.33203 4.96683 1.4627 4.65305 1.72403 4.39216C1.98536 4.13127 2.29914 4.00061 2.66536 4.00016H5.33203V2.66683C5.33203 2.30016 5.4627 1.98639 5.72403 1.7255C5.98536 1.46461 6.29914 1.33394 6.66536 1.3335H9.33203C9.6987 1.3335 10.0127 1.46416 10.274 1.7255C10.5354 1.98683 10.6658 2.30061 10.6654 2.66683V4.00016H13.332C13.6987 4.00016 14.0127 4.13083 14.274 4.39216C14.5354 4.6535 14.6658 4.96727 14.6654 5.3335V12.6668C14.6654 13.0335 14.5349 13.3475 14.274 13.6088C14.0131 13.8702 13.6991 14.0006 13.332 14.0002H2.66536ZM6.66536 4.00016H9.33203V2.66683H6.66536V4.00016Z" fill="var(--fill-0, #2204DB)"/>
</g>
</svg>
