<svg preserveAspectRatio="none" width="100%" height="100%" overflow="visible" style="display: block;" viewBox="0 0 646 688" fill="none" xmlns="http://www.w3.org/2000/svg">
<g id="Subtract">
<mask id="path-1-inside-1_2129_20920" fill="white">
<path d="M548.525 362.607C548.525 373.653 557.48 382.607 568.525 382.607H625.998C637.044 382.607 645.998 391.562 645.998 402.607V668C645.998 679.046 637.044 688 625.998 688H20C8.9543 688 0 679.046 0 668V20C0 8.95431 8.95431 0 20 0H528.525C539.571 0 548.525 8.95431 548.525 20V362.607Z"/>
</mask>
<path d="M568.525 382.607V383.607H625.998V382.607V381.607H568.525V382.607ZM645.998 402.607H644.998V668H645.998H646.998V402.607H645.998ZM625.998 688V687H20V688V689H625.998V688ZM0 668H1V20H0H-1V668H0ZM20 0V1H528.525V0V-1H20V0ZM548.525 20H547.525V362.607H548.525H549.525V20H548.525ZM528.525 0V1C539.019 1 547.525 9.50659 547.525 20H548.525H549.525C549.525 8.40202 540.123 -1 528.525 -1V0ZM0 20H1C1 9.5066 9.50659 1 20 1V0V-1C8.40202 -1 -1 8.40203 -1 20H0ZM20 688V687C9.50659 687 1 678.493 1 668H0H-1C-1 679.598 8.40202 689 20 689V688ZM645.998 668H644.998C644.998 678.493 636.491 687 625.998 687V688V689C637.596 689 646.998 679.598 646.998 668H645.998ZM625.998 382.607V383.607C636.491 383.607 644.998 392.114 644.998 402.607H645.998H646.998C646.998 391.009 637.596 381.607 625.998 381.607V382.607ZM568.525 382.607V381.607C558.032 381.607 549.525 373.101 549.525 362.607H548.525H547.525C547.525 374.205 556.927 383.607 568.525 383.607V382.607Z" fill="var(--stroke-0, black)" mask="url(#path-1-inside-1_2129_20920)"/>
</g>
</svg>
