<svg preserveAspectRatio="none" width="100%" height="100%" overflow="visible" style="display: block;" viewBox="0 0 16 16" fill="none" xmlns="http://www.w3.org/2000/svg">
<g id="Group 171">
<path id="Vector" d="M10.8776 1.59965H3.63281C3.94148 1.06537 4.39887 0.630264 4.95063 0.348725C5.63513 -9.53469e-08 6.53074 0 8.32514 0H10.884C12.6752 0 13.5708 -9.53469e-08 14.2585 0.348725C14.8599 0.655858 15.3492 1.14535 15.6563 1.74682C16.005 2.43148 16.005 3.32728 16.005 5.1221V7.68154C16.005 9.47316 16.005 10.369 15.6563 11.0568C15.3756 11.6079 14.9412 12.0657 14.4057 12.3749V5.12849C14.4057 4.20549 14.4057 3.61042 14.3673 3.16092C14.3321 2.72581 14.2713 2.56585 14.2313 2.48586C14.078 2.18488 13.8334 1.94018 13.5324 1.78681C13.4525 1.74682 13.2926 1.68604 12.8575 1.65084C12.2025 1.61431 11.5464 1.60151 10.8904 1.61245L10.8776 1.59965Z" fill="var(--fill-0, white)"/>
<path id="Vector_2" fill-rule="evenodd" clip-rule="evenodd" d="M0 8.31846C0 6.52685 -9.53181e-08 5.63104 0.348646 4.94319C0.655711 4.34172 1.14509 3.85222 1.74643 3.54509C2.43093 3.19637 3.32653 3.19637 5.12094 3.19637H7.67981C9.47102 3.19637 10.3666 3.19637 11.0543 3.54509C11.6557 3.85222 12.145 4.34172 12.4521 4.94319C12.8008 5.62784 12.8008 6.52365 12.8008 8.31846V10.8779C12.8008 12.6695 12.8008 13.5653 12.4521 14.2532C12.1455 14.8551 11.6561 15.3446 11.0543 15.6513C10.3698 16 9.47422 16 7.67981 16H5.12094C3.32973 16 2.43413 16 1.74643 15.6513C1.1446 15.3446 0.655301 14.8551 0.348646 14.2532C-9.53181e-08 13.5685 0 12.6727 0 10.8779V8.31846ZM5.11774 4.79922H7.67661C8.59941 4.79922 9.19434 4.79922 9.64375 4.83761C10.0788 4.8728 10.2387 4.93359 10.3186 4.97358C10.6193 5.12715 10.864 5.3719 11.0175 5.67263C11.0575 5.75261 11.1183 5.91258 11.1535 6.34768C11.1903 6.80039 11.1919 7.39706 11.1919 8.31526V10.8747C11.1919 11.7977 11.1919 12.3928 11.1535 12.8423C11.1183 13.2774 11.0575 13.4374 11.0175 13.5173C10.8642 13.8183 10.6196 14.063 10.3186 14.2164C10.2387 14.2564 10.0788 14.3172 9.64375 14.3524C9.19115 14.3891 8.59461 14.3907 7.67661 14.3907H5.11774C4.19495 14.3907 3.60001 14.3907 3.15061 14.3524C2.7156 14.3172 2.55567 14.2564 2.47571 14.2164C2.17479 14.063 1.93014 13.8183 1.77682 13.5173C1.73683 13.4374 1.67606 13.2774 1.64088 12.8423C1.60435 12.1871 1.59155 11.5308 1.60249 10.8747V8.31526C1.60249 7.39226 1.60249 6.79719 1.64088 6.34768C1.67606 5.91258 1.73683 5.75261 1.77682 5.67263C1.93035 5.3719 2.17504 5.12715 2.47571 4.97358C2.55567 4.93359 2.7156 4.8728 3.15061 4.83761C3.60321 4.79922 4.19975 4.79922 5.11774 4.79922Z" fill="var(--fill-0, white)"/>
</g>
</svg>
